<svg width="24" height="24" viewBox="0 0 24 24" fill="none" xmlns="http://www.w3.org/2000/svg">
<path d="M15.7353 14.308C15.5326 14.308 15.3682 14.1436 15.3682 13.9408V6.8856C15.3682 6.68282 15.5326 6.51843 15.7353 6.51843C15.9381 6.51843 16.1025 6.68282 16.1025 6.8856V13.9408C16.1025 14.1436 15.9381 14.308 15.7353 14.308Z" fill="#66BB00"/>
<path d="M15.0796 6.8726C13.9625 9.56926 11.4557 7.06239 14.1524 5.94541C11.4557 7.06244 11.4557 3.51715 14.1524 4.63413C11.4557 3.5171 13.9626 1.01023 15.0796 3.70695C13.9625 1.01028 17.5078 1.01028 16.3908 3.70695C17.5079 1.01028 20.0147 3.51715 17.318 4.63413C20.0147 3.5171 20.0147 7.06239 17.318 5.94541C20.0147 7.06244 17.5078 9.56931 16.3908 6.8726C17.5078 9.56926 13.9626 9.56926 15.0796 6.8726Z" fill="#FF3F62"/>
<path d="M8.26463 14.308C8.06185 14.308 7.89746 14.1436 7.89746 13.9408V6.8856C7.89746 6.68282 8.06185 6.51843 8.26463 6.51843C8.46741 6.51843 8.6318 6.68282 8.6318 6.8856V13.9408C8.6318 14.1436 8.46741 14.308 8.26463 14.308Z" fill="#66BB00"/>
<path d="M7.60935 6.8726C6.49232 9.56926 3.98545 7.06239 6.68217 5.94541C3.9855 7.06244 3.9855 3.51715 6.68217 4.63413C3.9855 3.5171 6.49237 1.01023 7.60935 3.70695C6.49232 1.01028 10.0376 1.01028 8.92063 3.70695C10.0377 1.01028 12.5445 3.51715 9.84782 4.63413C12.5445 3.5171 12.5445 7.06239 9.84782 5.94541C12.5445 7.06244 10.0376 9.56931 8.92063 6.8726C10.0376 9.56926 6.49232 9.56926 7.60935 6.8726Z" fill="#FF3F62"/>
<path d="M8.26507 6.20788C8.77202 6.20788 9.18298 5.79692 9.18298 5.28997C9.18298 4.78303 8.77202 4.37207 8.26507 4.37207C7.75813 4.37207 7.34717 4.78303 7.34717 5.28997C7.34717 5.79692 7.75813 6.20788 8.26507 6.20788Z" fill="#FFDA44"/>
<path d="M15.7348 6.20788C16.2417 6.20788 16.6527 5.79692 16.6527 5.28997C16.6527 4.78303 16.2417 4.37207 15.7348 4.37207C15.2279 4.37207 14.8169 4.78303 14.8169 5.28997C14.8169 5.79692 15.2279 6.20788 15.7348 6.20788Z" fill="#FFDA44"/>
<path d="M12 12.6236C11.7972 12.6236 11.6328 12.4592 11.6328 12.2564V5.20116C11.6328 4.99837 11.7972 4.83398 12 4.83398C12.2028 4.83398 12.3672 4.99837 12.3672 5.20116V12.2564C12.3672 12.4592 12.2028 12.6236 12 12.6236Z" fill="#77DD00"/>
<path d="M12 4.83398C11.7972 4.83398 11.6328 4.99837 11.6328 5.20116V8.64951C11.7532 8.66915 11.8759 8.67946 12 8.67946C12.1241 8.67946 12.2468 8.66915 12.3672 8.64951V5.20116C12.3672 4.99837 12.2028 4.83398 12 4.83398Z" fill="#66BB00"/>
<path d="M11.3442 5.18815C10.2272 7.88482 7.72032 5.37795 10.417 4.26096C7.72036 5.37799 7.72036 1.8327 10.417 2.94969C7.72036 1.83266 10.2272 -0.674213 11.3442 2.0225C10.2272 -0.674167 13.7725 -0.674167 12.6555 2.0225C13.7725 -0.674167 16.2794 1.8327 13.5827 2.94969C16.2793 1.83266 16.2793 5.37795 13.5827 4.26096C16.2793 5.37799 13.7725 7.88486 12.6555 5.18815C13.7725 7.88482 10.2272 7.88482 11.3442 5.18815Z" fill="#F490C0"/>
<path d="M11.9999 4.52319C12.5069 4.52319 12.9178 4.11223 12.9178 3.60528C12.9178 3.09834 12.5069 2.68738 11.9999 2.68738C11.493 2.68738 11.082 3.09834 11.082 3.60528C11.082 4.11223 11.493 4.52319 11.9999 4.52319Z" fill="#FFE477"/>
<path d="M6.24561 13.0446L7.44148 23.275C7.48929 23.6882 7.83921 24 8.25513 24H15.7432C16.1592 24 16.5091 23.6882 16.5568 23.275L17.7541 13.0446H6.24561Z" fill="#FF9478"/>
<path d="M17.7542 13.0446H6.24561L7.44148 23.275C7.48929 23.6882 7.83921 24 8.25513 24H11.1926C10.7766 24 10.4267 23.6882 10.3789 23.275L9.50444 15.7937H17.4324L17.7542 13.0446Z" fill="#FF6243"/>
<path d="M15.7016 18.3164C15.6874 18.3164 15.673 18.3155 15.6585 18.3139C15.4571 18.2903 15.3129 18.1079 15.3365 17.9065L15.425 17.1508C15.4485 16.9494 15.6308 16.8052 15.8324 16.8288C16.0338 16.8524 16.178 17.0348 16.1543 17.2362L16.0659 17.9919C16.044 18.1788 15.8853 18.3164 15.7016 18.3164Z" fill="#FF6243"/>
<path d="M15.1655 22.8984C15.1513 22.8984 15.1369 22.8976 15.1224 22.896C14.921 22.8724 14.7768 22.69 14.8004 22.4886L15.1653 19.3705C15.1888 19.1691 15.3713 19.0247 15.5727 19.0485C15.7741 19.072 15.9183 19.2544 15.8947 19.4558L15.5298 22.5739C15.5079 22.7608 15.3492 22.8984 15.1655 22.8984Z" fill="#FF6243"/>
<path d="M18.29 14.325H5.70986C5.22517 14.325 4.82861 13.9284 4.82861 13.4437V11.069C4.82861 10.5843 5.22517 10.1877 5.70986 10.1877H18.29C18.7746 10.1877 19.1712 10.5843 19.1712 11.069V13.4437C19.1712 13.9284 18.7746 14.325 18.29 14.325Z" fill="#FFEB99"/>
<path d="M7.59339 13.4437V11.069C7.59339 10.5843 7.98995 10.1877 8.47464 10.1877H5.70986C5.22518 10.1877 4.82861 10.5843 4.82861 11.069V13.4437C4.82861 13.9284 5.22518 14.325 5.70986 14.325H8.47464C7.98995 14.325 7.59339 13.9284 7.59339 13.4437Z" fill="#FFDA44"/>
<path d="M14.9375 13.0962H9.94383C9.74105 13.0962 9.57666 12.9318 9.57666 12.729C9.57666 12.5262 9.74105 12.3618 9.94383 12.3618H14.9375C15.1403 12.3618 15.3047 12.5262 15.3047 12.729C15.3047 12.9318 15.1403 13.0962 14.9375 13.0962Z" fill="#FFDA44"/>
<path d="M17.4177 13.0962H16.2754C16.0726 13.0962 15.9082 12.9318 15.9082 12.729C15.9082 12.5262 16.0726 12.3618 16.2754 12.3618H17.4177C17.6205 12.3618 17.7849 12.5262 17.7849 12.729C17.7849 12.9318 17.6205 13.0962 17.4177 13.0962Z" fill="#FFDA44"/>
</svg>
