<svg width="24" height="24" viewBox="0 0 24 24" fill="none" xmlns="http://www.w3.org/2000/svg">
<g clip-path="url(#clip0_76_581)">
<path d="M11.4195 23.1778C8.73707 21.754 5.9917 19.4588 5.9917 16.4907C5.9917 13.0454 9.41329 11.5805 11.7959 13.6657C14.162 11.5949 17.6001 13.0275 17.6001 16.4907C17.6001 17.9121 16.895 20.671 12.1723 23.1778C11.9372 23.3026 11.6546 23.3026 11.4195 23.1778Z" fill="#FF7058"/>
<path d="M11.7954 13.6656V23.2713C11.9248 23.2713 12.0543 23.2402 12.1718 23.1778C16.8944 20.671 17.5996 17.9121 17.5996 16.4906C17.5996 13.0275 14.1615 11.5949 11.7954 13.6656Z" fill="#F1543F"/>
<path d="M18.2547 10.641H10.3194C8.87692 10.641 7.71643 9.46734 7.75595 8.03395C7.77737 7.26113 8.16292 6.57029 8.74773 6.11781H7.79851L4.20072 9.10388C3.09569 10.0211 1.44372 9.85964 0.542873 8.73648C-0.311893 7.67091 -0.138268 6.08285 0.929732 5.19652L5.66242 1.26872C6.11186 0.895753 6.68251 0.690308 7.26915 0.690308H14.4901C15.0767 0.690308 15.6473 0.895707 16.0967 1.26872L18.871 3.57095C19.0881 3.75113 19.2136 4.01712 19.2136 4.2975V9.69268C19.2136 10.2165 18.7843 10.641 18.2547 10.641Z" fill="#FFD15C"/>
<path d="M18.8708 3.57095L16.0966 1.26872C15.6471 0.895707 15.0765 0.690308 14.4899 0.690308H11.7954V10.641H18.2546C18.7841 10.641 19.2134 10.2164 19.2134 9.69268V4.29754C19.2134 4.01717 19.0879 3.75117 18.8708 3.57095Z" fill="#F8B64C"/>
<path d="M13.0639 7.08627C13.0639 7.61001 12.6346 8.03463 12.1051 8.03463H7.75586C7.75586 8.0344 7.75586 8.03421 7.75586 8.03398C7.777 7.2722 8.15228 6.59053 8.72312 6.13782H12.1051C12.6346 6.13786 13.0639 6.56248 13.0639 7.08627Z" fill="#F8B64C"/>
<path d="M12.105 6.13782H11.7954V8.03458H12.105C12.6345 8.03458 13.0638 7.60997 13.0638 7.08618C13.0638 6.56243 12.6346 6.13782 12.105 6.13782Z" fill="#F59D00"/>
<path d="M23.0411 12.12H18.2547C17.7252 12.12 17.2959 11.6954 17.2959 11.1717V1.41613C17.2959 0.892389 17.7252 0.467773 18.2547 0.467773H23.0411C23.5706 0.467773 23.9999 0.892389 23.9999 1.41613V11.1717C23.9999 11.6954 23.5706 12.12 23.0411 12.12Z" fill="#127FB5"/>
</g>
<defs>
<clipPath id="clip0_76_581">
<rect width="24" height="23.7391" fill="white"/>
</clipPath>
</defs>
</svg>
