<svg width="24" height="24" viewBox="0 0 24 24" fill="none" xmlns="http://www.w3.org/2000/svg">
<path d="M5.24854 11.3506H6.05704V18.5821H5.24854V11.3506Z" fill="#CFD7DB"/>
<path d="M2.03564 14.5605H9.26714V15.372H2.03564V14.5605Z" fill="#CFD7DB"/>
<path d="M2.8125 12.6945L3.384 12.1245L8.4945 17.2395L7.9215 17.8095L2.8125 12.6945Z" fill="#CFD7DB"/>
<path d="M3.384 17.8126L2.8125 17.2426L7.9185 12.1201L8.4915 12.6916L3.384 17.8126Z" fill="#CFD7DB"/>
<path d="M5.65178 19.233C4.52059 19.2318 3.43605 18.782 2.63604 17.9823C1.83603 17.1825 1.38587 16.0981 1.38428 14.967C1.38428 12.6135 3.29828 10.6995 5.65178 10.6995C8.00528 10.6995 9.91928 12.612 9.91928 14.967C9.91769 16.0981 9.46752 17.1825 8.66751 17.9823C7.8675 18.782 6.78296 19.2318 5.65178 19.233ZM5.65178 11.6055C4.76088 11.6071 3.90694 11.9618 3.27712 12.5919C2.6473 13.222 2.29297 14.0761 2.29178 14.967C2.29178 16.818 3.79928 18.324 5.65178 18.324C7.50428 18.324 9.01178 16.818 9.01178 14.967C9.01059 14.0761 8.65625 13.222 8.02643 12.5919C7.39661 11.9618 6.54268 11.6071 5.65178 11.6055Z" fill="#5F7B89"/>
<path d="M18.144 11.3506H18.954V18.5821H18.144V11.3506Z" fill="#CFD7DB"/>
<path d="M14.9341 14.5605H22.1641V15.372H14.9341V14.5605Z" fill="#CFD7DB"/>
<path d="M15.7095 12.693L16.281 12.123L21.3885 17.2425L20.8155 17.8125L15.7095 12.693Z" fill="#CFD7DB"/>
<path d="M16.281 17.8141L15.708 17.2441L20.811 12.1201L21.384 12.6901L16.281 17.8141Z" fill="#CFD7DB"/>
<path d="M18.5488 19.233C17.4173 19.2322 16.3324 18.7826 15.5321 17.9828C14.7317 17.183 14.2814 16.0984 14.2798 14.967C14.281 13.8353 14.7312 12.7503 15.5316 11.9502C16.3319 11.1501 17.4171 10.7003 18.5488 10.6995C19.68 10.7011 20.7643 11.1512 21.5641 11.9512C22.3638 12.7512 22.8136 13.8358 22.8148 14.967C22.8136 16.098 22.3638 17.1824 21.564 17.9822C20.7642 18.7819 19.6798 19.2318 18.5488 19.233ZM18.5488 11.6055C17.6576 11.6067 16.8033 11.9612 16.1732 12.5913C15.543 13.2215 15.1885 14.0758 15.1873 14.967C15.1893 15.8575 15.5442 16.7109 16.1743 17.3401C16.8044 17.9694 17.6583 18.3232 18.5488 18.324C19.4391 18.3232 20.2929 17.9693 20.9227 17.34C21.5526 16.7107 21.9072 15.8573 21.9088 14.967C21.9076 14.0761 21.5533 13.222 20.9234 12.5919C20.2936 11.9618 19.4397 11.6071 18.5488 11.6055Z" fill="#5F7B89"/>
<path d="M8.06104 7.14295L8.89353 6.83545L12.261 15.9494L11.427 16.2569L8.06104 7.14295Z" fill="#E51B54"/>
<path d="M5.37598 15.2281L6.15148 15.6586L9.47848 9.42311L8.70148 8.9941L5.37598 15.2281ZM11.7405 15.0646L12.5445 15.4771L16.2465 9.0331L15.441 8.62061L11.7405 15.0646Z" fill="#E51B54"/>
<path d="M19.131 15.8356L18.3075 16.1656L13.875 5.1001L14.988 5.2156L19.131 15.8356Z" fill="#E51B54"/>
<path d="M9.09131 8.06689H15.9118V8.95339H9.09131V8.06689Z" fill="#E51B54"/>
<path d="M16.0547 6.10792H16.0277L14.5127 6.02242L14.5652 5.07142L16.0652 5.15692C16.2947 5.14942 17.0072 5.05642 17.0072 4.15942H17.9597C17.9597 5.58892 16.8197 6.10792 16.0547 6.10792Z" fill="#E51B54"/>
<path d="M16.4657 6.05092L16.3682 5.10442C16.5182 5.08642 17.0087 4.96042 17.0087 4.15942H17.9612C17.9597 5.54392 16.9817 6.00292 16.4657 6.05092Z" fill="#4D5462"/>
<path d="M10.1866 5.37759L7.35907 5.96109C6.93757 6.05109 6.66907 6.48609 6.76357 6.93609C6.85657 7.38609 7.04107 7.72809 7.69657 7.59159L7.74757 7.55409C7.99957 7.51209 8.41357 7.26909 8.82157 6.89409C9.00907 6.72009 9.16957 6.54609 9.29707 6.38259L9.34957 6.34059C9.77257 6.25359 11.1091 6.15759 11.1016 5.93259L11.0821 5.83509C11.0581 5.69409 10.9471 5.21859 10.1866 5.37759Z" fill="#811E4D"/>
<path d="M13.4834 15.8235C13.4834 16.7205 12.6584 17.259 11.6429 17.259L6.88936 16.257C5.84836 15.9585 5.04736 15.8385 5.04736 14.7945V15.1755C5.04736 14.2755 5.69686 14.1975 6.71236 14.1975H11.6429C12.6584 14.1975 13.4834 14.9235 13.4834 15.8235Z" fill="#A31A53"/>
</svg>
